<?xml version="1.0" encoding="UTF-8"?>
<svg version="1.1" xmlns="http://www.w3.org/2000/svg" width="256" height="256">
<path d="M0 0 C73.26 0 146.52 0 222 0 C222 77.55 222 155.1 222 235 C163.26 235 104.52 235 44 235 C44 241.93 44 248.86 44 256 C39 254 39 254 36.4375 252.3125 C34.17669416 250.83194948 34.17669416 250.83194948 32.0625 251.0625 C29.15666699 252.38333319 26.64253881 254.21915863 24 256 C23.34 256 22.68 256 22 256 C22 249.07 22 242.14 22 235 C14.74 235 7.48 235 0 235 C0 157.45 0 79.9 0 0 Z " fill="#818085" transform="translate(17,0)"/>
<path d="M0 0 C35.31 0 70.62 0 107 0 C107 77.55 107 155.1 107 235 C71.69 235 36.38 235 0 235 C0 206.95 0 178.9 0 150 C-2.31 150 -4.62 150 -7 150 C-7 139.11 -7 128.22 -7 117 C-4.69 117 -2.38 117 0 117 C0 114.69 0 112.38 0 110 C-0.99 110 -1.98 110 -3 110 C-3 99.44 -3 88.88 -3 78 C-2.01 78 -1.02 78 0 78 C0 52.26 0 26.52 0 0 Z " fill="#ACABB1" transform="translate(132,0)"/>
<path d="M0 0 C7.26 0 14.52 0 22 0 C22 77.55 22 155.1 22 235 C14.74 235 7.48 235 0 235 C0 157.45 0 79.9 0 0 Z " fill="#000000" transform="translate(17,0)"/>
<path d="M0 0 C4.95 0 9.9 0 15 0 C15 77.55 15 155.1 15 235 C10.05 235 5.1 235 0 235 C0 157.45 0 79.9 0 0 Z " fill="#FD5424" transform="translate(224,0)"/>
<path d="M0 0 C4.95 0 9.9 0 15 0 C15.0226633 10.63187738 15.04097986 21.2637385 15.05181217 31.89563465 C15.05701319 36.8333457 15.0640599 41.77103925 15.07543945 46.70874023 C15.0863677 51.48090981 15.09229775 56.25306263 15.09487724 61.02524376 C15.09671368 62.83873444 15.10029951 64.6522243 15.10573006 66.46570778 C15.1322947 75.71105279 15.05715461 84.80019429 14 94 C9.38 94 4.76 94 0 94 C0 62.98 0 31.96 0 0 Z " fill="#000000" transform="translate(224,0)"/>
<path d="M0 0 C5.43891917 2.3281348 9.52553511 5.5355567 12 11 C12.93989787 16.32608793 12.56925817 20.70292982 9.875 25.4375 C7.33315662 28.93253465 5.23522063 30.74511981 1 32 C-4.25805273 32.61997935 -8.54420526 32.63525589 -13.4375 30.5 C-17.63604361 26.4038599 -20.13101848 21.92412471 -20.5625 16 C-20.27772431 11.17779827 -18.13846435 7.5822876 -15 4 C-10.66529949 0.25448208 -5.63418461 -1.23415472 0 0 Z " fill="#FAFAFA" transform="translate(109,117)"/>
<path d="M0 0 C4.23301121 2.82200747 7.17159664 5.95228992 8.8125 10.875 C9.60028982 16.489249 9.46154659 20.69167888 6.0625 25.375 C3.14819596 28.96636457 0.64826743 30.60571959 -3.95703125 31.28125 C-13.18999891 31.565706 -13.18999891 31.565706 -17.25 28.3125 C-21.18695659 24.22190608 -22.92207232 19.99842141 -23.625 14.375 C-22.92517626 8.77641012 -20.73286101 5.30728582 -16.625 1.5 C-11.38219552 -1.99520299 -5.78544111 -2.04192039 0 0 Z " fill="#FAFAFA" transform="translate(115.1875,79.125)"/>
<path d="M0 0 C5.04896704 2.87838308 7.65012026 5.74583601 9.83984375 11.12890625 C10.73359775 16.42979204 9.82359863 20.65327394 6.83984375 25.12890625 C2.64181349 29.27096277 -0.50366685 31.28809573 -6.41015625 31.44140625 C-11.48088862 31.39494666 -14.29342632 30.60896318 -18.16015625 27.12890625 C-21.93832643 22.82960915 -22.46102971 18.95529893 -22.37109375 13.40625 C-21.91975763 8.53349156 -19.74110555 5.44305601 -16.16015625 2.31640625 C-11.21351095 -1.29052261 -5.74801736 -2.31791658 0 0 Z " fill="#FBFBFC" transform="translate(188.16015625,117.87109375)"/>
<path d="M0 0 C4.95 0 9.9 0 15 0 C15 15.51 15 31.02 15 47 C10.05 47 5.1 47 0 47 C0 31.49 0 15.98 0 0 Z " fill="#FFDA43" transform="translate(224,188)"/>
<path d="M0 0 C4.95 0 9.9 0 15 0 C15.02312487 4.92559773 15.04298672 9.85100229 15.05493164 14.77661133 C15.05991846 16.44751631 15.06671031 18.11841702 15.07543945 19.78930664 C15.12194273 28.92856796 15.04155178 37.90487459 14 47 C9.38 47 4.76 47 0 47 C0 31.49 0 15.98 0 0 Z " fill="#6C0013" transform="translate(224,47)"/>
<path d="M0 0 C2.701875 -0.061875 5.40375 -0.12375 8.1875 -0.1875 C9.02949951 -0.21481201 9.87149902 -0.24212402 10.73901367 -0.27026367 C16.37466348 -0.33256195 19.60688579 0.77192815 23.8125 4.6875 C25.55912451 8.08882141 25.61345207 11.24940064 25 15 C24.03126968 16.35622245 23.03565785 17.69417053 22 19 C22.13147692 23.73316899 24.81383442 27.90221056 27 32 C23.55055743 32.48225216 20.42760497 32.70121995 17 32 C14.58054872 29.6709458 13.19220191 27.12482394 12 24 C12 23.34 12 22.68 12 22 C10.68 22 9.36 22 8 22 C8 25.3 8 28.6 8 32 C5.36 32 2.72 32 0 32 C0 21.44 0 10.88 0 0 Z " fill="#FDFDFD" transform="translate(129,78)"/>
<path d="M0 0 C4.62 0 9.24 0 14 0 C14 15.51 14 31.02 14 47 C9.38 47 4.76 47 0 47 C0 31.49 0 15.98 0 0 Z " fill="#D80026" transform="translate(224,94)"/>
<path d="M0 0 C16 0 16 0 21 3 C23.90286184 6.36120845 24.98399385 8.08764923 25.0625 12.5625 C23.81858851 16.58691953 22.17635461 18.30009858 19 21 C18.67 21.33 18.34 21.66 18 22 C14.99668982 22.14193337 12.00782866 22.04236378 9 22 C9 25.3 9 28.6 9 32 C6.03 32 3.06 32 0 32 C0 21.44 0 10.88 0 0 Z " fill="#FAFAFA" transform="translate(65,78)"/>
<path d="M0 0 C7.26 0 14.52 0 22 0 C22 2.64 22 5.28 22 8 C17.71 8 13.42 8 9 8 C9 9.65 9 11.3 9 13 C12.63 13 16.26 13 20 13 C20 15.64 20 18.28 20 21 C16.37 21 12.74 21 9 21 C9 24.63 9 28.26 9 32 C6.03 32 3.06 32 0 32 C0 21.44 0 10.88 0 0 Z " fill="#F7F7F7" transform="translate(65,117)"/>
<path d="M0 0 C8.91 0 17.82 0 27 0 C27 2.64 27 5.28 27 8 C24.03 8 21.06 8 18 8 C18 15.92 18 23.84 18 32 C15.03 32 12.06 32 9 32 C9 24.08 9 16.16 9 8 C6.03 8 3.06 8 0 8 C0 5.36 0 2.72 0 0 Z " fill="#FBFBFB" transform="translate(157,78)"/>
<path d="M0 0 C7.26 0 14.52 0 22 0 C22 6.93 22 13.86 22 21 C17 19 17 19 14.4375 17.3125 C12.17669416 15.83194948 12.17669416 15.83194948 10.0625 16.0625 C7.15666699 17.38333319 4.64253881 19.21915863 2 21 C1.34 21 0.68 21 0 21 C0 14.07 0 7.14 0 0 Z " fill="#D70026" transform="translate(39,235)"/>
<path d="M0 0 C2.64 0 5.28 0 8 0 C8 7.92 8 15.84 8 24 C12.62 24 17.24 24 22 24 C22 26.31 22 28.62 22 31 C14.74 31 7.48 31 0 31 C0 20.77 0 10.54 0 0 Z " fill="#FFFFFF" transform="translate(126,118)"/>
<path d="M0 0 C2.64 0 5.28 0 8 0 C8 10.23 8 20.46 8 31 C5.36 31 2.72 31 0 31 C0 20.77 0 10.54 0 0 Z " fill="#FFFFFF" transform="translate(153,118)"/>
<path d="M0 0 C3.4375 0.9375 3.4375 0.9375 5.375 2 C7.14539785 5.22837256 7.16152648 8.41982416 6.4375 11.9375 C4.3125 15 4.3125 15 1.4375 16.9375 C-2.05410091 17.00733202 -3.75165407 16.61320494 -6.4375 14.375 C-8.06361654 10.85174751 -8.2483449 7.7486154 -7.5625 3.9375 C-5.3173484 0.25545138 -4.33137369 -0.07598901 0 0 Z " fill="#868589" transform="translate(105.5625,125.0625)"/>
<path d="M0 0 C2.28677385 1.77040556 2.86400707 3.06528805 3.27734375 5.90625 C3.42852435 9.14756204 3.21395458 11.49657747 1.9375 14.5 C0 16 0 16 -3.4375 16.5 C-7 16 -7 16 -9.4375 14.5 C-11.63828902 10.97873756 -11.80414661 8.04560357 -11 4 C-8.1696677 -0.52853168 -5.10097095 -0.74195941 0 0 Z " fill="#858489" transform="translate(112,86)"/>
<path d="M0 0 C3.11293327 2.77639994 3.92696269 4.40526763 4.4375 8.5625 C3.7659306 13.83911672 3.7659306 13.83911672 1 16 C-1.74180997 16.50266516 -4.27449733 16.60994112 -7 16 C-9.1657043 14.42494232 -9.88827863 13.50553921 -10.46875 10.87890625 C-10.55281506 4.64758336 -10.55281506 4.64758336 -7.8125 1.4375 C-4.75257402 -0.12646217 -3.35336563 -0.77385361 0 0 Z " fill="#AEADB3" transform="translate(185,125)"/>
<path d="M0 0 C2.33294775 -0.04241723 4.66702567 -0.04092937 7 0 C8 1 8 1 8.125 3.5 C8 6 8 6 7 7 C4.66702567 7.04092937 2.33294775 7.04241723 0 7 C0 4.69 0 2.38 0 0 Z " fill="#B5B4BA" transform="translate(137,86)"/>
<path d="M0 0 C1.99954746 -0.04254356 4.00041636 -0.04080783 6 0 C7 1 7 1 7.125 3.5 C7 6 7 6 6 7 C4.00041636 7.04080783 1.99954746 7.04254356 0 7 C0 4.69 0 2.38 0 0 Z " fill="#8B8A8E" transform="translate(74,86)"/>
</svg>
